<mxfile host="app.diagrams.net" agent="Mozilla/5.0 (Windows NT 10.0; Win64; x64) AppleWebKit/537.36 (KHTML, like Gecko) Chrome/130.0.0.0 Safari/537.36" version="24.9.3">
  <diagram name="Trang-1" id="v7oJ_dH9gjewh1PjKzla">
    <mxGraphModel dx="1006" dy="531" grid="1" gridSize="10" guides="1" tooltips="1" connect="1" arrows="1" fold="1" page="1" pageScale="1" pageWidth="1654" pageHeight="2336" math="0" shadow="0">
      <root>
        <mxCell id="0" />
        <mxCell id="1" parent="0" />
        <mxCell id="Lrs3f_TtwcWyksSaqaWU-1" style="edgeStyle=orthogonalEdgeStyle;rounded=0;orthogonalLoop=1;jettySize=auto;html=1;exitX=0.5;exitY=1;exitDx=0;exitDy=0;entryX=0.5;entryY=0;entryDx=0;entryDy=0;" parent="1" source="w28Re9hD5bB0-Zq4LZBB-1" target="w28Re9hD5bB0-Zq4LZBB-3" edge="1">
          <mxGeometry relative="1" as="geometry" />
        </mxCell>
        <mxCell id="w28Re9hD5bB0-Zq4LZBB-1" value="&lt;span&gt;Bắt đầu và khởi tạo&lt;/span&gt;" style="ellipse;whiteSpace=wrap;html=1;fontStyle=1" parent="1" vertex="1">
          <mxGeometry x="460" y="160" width="120" height="80" as="geometry" />
        </mxCell>
        <mxCell id="Lrs3f_TtwcWyksSaqaWU-3" style="edgeStyle=orthogonalEdgeStyle;rounded=0;orthogonalLoop=1;jettySize=auto;html=1;exitX=0.5;exitY=1;exitDx=0;exitDy=0;entryX=0.5;entryY=0;entryDx=0;entryDy=0;" parent="1" source="w28Re9hD5bB0-Zq4LZBB-2" target="3F6RUksymKRZnO0QloGs-1" edge="1">
          <mxGeometry relative="1" as="geometry" />
        </mxCell>
        <mxCell id="w28Re9hD5bB0-Zq4LZBB-2" value="Đọc các giá trị cảm biến" style="rounded=1;whiteSpace=wrap;html=1;fontStyle=1" parent="1" vertex="1">
          <mxGeometry x="440" y="400" width="160" height="80" as="geometry" />
        </mxCell>
        <mxCell id="Lrs3f_TtwcWyksSaqaWU-2" style="edgeStyle=orthogonalEdgeStyle;rounded=0;orthogonalLoop=1;jettySize=auto;html=1;exitX=0.5;exitY=1;exitDx=0;exitDy=0;entryX=0.5;entryY=0;entryDx=0;entryDy=0;" parent="1" source="w28Re9hD5bB0-Zq4LZBB-3" target="w28Re9hD5bB0-Zq4LZBB-2" edge="1">
          <mxGeometry relative="1" as="geometry" />
        </mxCell>
        <mxCell id="Lrs3f_TtwcWyksSaqaWU-7" style="edgeStyle=orthogonalEdgeStyle;rounded=0;orthogonalLoop=1;jettySize=auto;html=1;exitX=1;exitY=0.5;exitDx=0;exitDy=0;" parent="1" source="w28Re9hD5bB0-Zq4LZBB-3" edge="1">
          <mxGeometry relative="1" as="geometry">
            <mxPoint x="520" y="260" as="targetPoint" />
            <Array as="points">
              <mxPoint x="680" y="320" />
              <mxPoint x="680" y="260" />
            </Array>
          </mxGeometry>
        </mxCell>
        <mxCell id="w28Re9hD5bB0-Zq4LZBB-3" value="Đủ 1 tiếng ?" style="rhombus;whiteSpace=wrap;html=1;fontStyle=1" parent="1" vertex="1">
          <mxGeometry x="435" y="280" width="170" height="80" as="geometry" />
        </mxCell>
        <mxCell id="Lrs3f_TtwcWyksSaqaWU-4" style="edgeStyle=orthogonalEdgeStyle;rounded=0;orthogonalLoop=1;jettySize=auto;html=1;exitX=0;exitY=0.5;exitDx=0;exitDy=0;entryX=0;entryY=0.5;entryDx=0;entryDy=0;" parent="1" source="3F6RUksymKRZnO0QloGs-1" target="w28Re9hD5bB0-Zq4LZBB-3" edge="1">
          <mxGeometry relative="1" as="geometry">
            <Array as="points">
              <mxPoint x="360" y="560" />
              <mxPoint x="360" y="320" />
            </Array>
          </mxGeometry>
        </mxCell>
        <mxCell id="3F6RUksymKRZnO0QloGs-1" value="Truyền về Master" style="rounded=1;whiteSpace=wrap;html=1;fontStyle=1" parent="1" vertex="1">
          <mxGeometry x="440" y="520" width="160" height="80" as="geometry" />
        </mxCell>
        <mxCell id="Lrs3f_TtwcWyksSaqaWU-5" value="&lt;b&gt;Đúng&lt;/b&gt;" style="text;html=1;align=center;verticalAlign=middle;whiteSpace=wrap;rounded=0;" parent="1" vertex="1">
          <mxGeometry x="520" y="360" width="60" height="30" as="geometry" />
        </mxCell>
        <mxCell id="Lrs3f_TtwcWyksSaqaWU-6" value="&lt;b&gt;Sai&lt;/b&gt;" style="text;html=1;align=center;verticalAlign=middle;whiteSpace=wrap;rounded=0;" parent="1" vertex="1">
          <mxGeometry x="610" y="290" width="60" height="30" as="geometry" />
        </mxCell>
        <mxCell id="Lrs3f_TtwcWyksSaqaWU-8" value="Lưu đồ giải thuật cho các Node" style="swimlane;whiteSpace=wrap;html=1;" parent="1" vertex="1">
          <mxGeometry x="280" y="120" width="480" height="520" as="geometry" />
        </mxCell>
      </root>
    </mxGraphModel>
  </diagram>
</mxfile>
